<?xml version="1.0" encoding="UTF-8" standalone="no"?>
<!DOCTYPE svg PUBLIC "-//W3C//DTD SVG 1.1//EN" "http://www.w3.org/Graphics/SVG/1.1/DTD/svg11.dtd">
<svg width="100%" height="100%" viewBox="0 0 71 108" version="1.1" xmlns="http://www.w3.org/2000/svg" xmlns:xlink="http://www.w3.org/1999/xlink" xml:space="preserve" xmlns:serif="http://www.serif.com/" style="fill-rule:evenodd;clip-rule:evenodd;stroke-linejoin:round;stroke-miterlimit:2;">
    <g transform="matrix(1,0,0,1,-0.000806911,-2.84217e-14)">
        <g transform="matrix(1,0,0,1,-270.846,-402.44)">
            <g transform="matrix(1,0,0,1,-132.308,0)">
                <g transform="matrix(-0.0778476,0.996965,0.996965,0.0778476,436.957,403.976)">
                    <path d="M4.636,-5.012C7.204,-5.012 9.286,-2.93 9.286,-0.362C9.286,2.206 7.204,4.288 4.636,4.288C2.068,4.288 -0.014,2.206 -0.014,-0.362C-0.014,-2.93 2.068,-5.012 4.636,-5.012" style="fill:white;fill-rule:nonzero;"/>
                </g>
                <g transform="matrix(1,0,0,1,468.644,511.076)">
                    <path d="M0,-108.636C1.498,-107.888 0.986,-108.373 1.73,-107.418C1.982,-106.995 2.153,-106.486 2.29,-105.843C4.128,-97.226 5.214,-88.225 4.683,-80.511C3.869,-68.696 -0.842,-61.695 -10.422,-62.443C-14.44,-62.844 -18.622,-63.727 -22.051,-65.981C-25.046,-61.633 -23.427,-63.964 -26.915,-58.994C-31.892,-52.001 -29.442,-55.409 -34.263,-48.766L-35.331,-35.096C-35.334,-35.033 -35.341,-34.919 -35.352,-34.758C-35.37,-34.494 -35.394,-34.188 -35.423,-33.844C-35.505,-32.867 -35.617,-31.773 -35.762,-30.587C-36.176,-27.196 -36.777,-23.734 -37.602,-20.394C-40.721,-7.766 -46.099,0 -54.763,-0.677C-62.011,-1.243 -65.71,-4.292 -65.479,-9.309C-65.287,-13.489 -62.591,-18.07 -57.622,-24.353C-50.979,-32.84 -44.579,-41.514 -38.249,-50.235L-35.211,-89.138L-31.131,-89.102C-31.122,-88.955 -31.094,-88.641 -31.034,-88.185C-30.933,-87.404 -30.781,-86.527 -30.571,-85.58C-29.968,-82.874 -29.014,-80.171 -27.641,-77.664C-26.428,-75.471 -24.928,-73.424 -23.027,-71.776C-16.053,-82.965 -7.374,-93.654 -2.926,-106.229C-2.519,-107.514 -2.037,-108.324 -0.803,-108.595L0,-108.636ZM-38.858,-42.443C-43.968,-35.511 -49.097,-28.591 -54.414,-21.816C-58.824,-16.242 -61.257,-12.106 -61.394,-9.12C-61.508,-6.642 -59.718,-5.166 -54.444,-4.754C-48.565,-4.294 -44.252,-10.521 -41.572,-21.374C-40.79,-24.54 -40.217,-27.845 -39.821,-31.083C-39.682,-32.217 -39.576,-33.26 -39.498,-34.188C-39.451,-34.739 -39.425,-35.125 -39.411,-35.368L-38.858,-42.443ZM-32.033,-77.317L-33.652,-56.58L-30.256,-61.353C-26.79,-66.29 -28.421,-63.942 -25.357,-68.392C-27.846,-70.354 -29.647,-72.989 -31.227,-75.699L-32.033,-77.317ZM-0.857,-100.477C-6.122,-89.541 -12.86,-79.329 -19.734,-69.347C-16.843,-67.549 -13.435,-66.871 -10.104,-66.52C-3.403,-65.997 -0.075,-70.943 0.603,-80.792C1.1,-87.399 0.194,-93.973 -0.857,-100.477" style="fill:white;fill-rule:nonzero;"/>
                </g>
            </g>
        </g>
    </g>
</svg>
